<svg width="390" height="84" viewBox="0 0 390 84" fill="none" xmlns="http://www.w3.org/2000/svg">
<path d="M0 84V0H66V84H48V18H42V48H24V18H18V84H0ZM113.812 66V18H89.8125V66H113.812ZM71.8125 84V0H131.812V84H71.8125ZM179.625 66V18H155.625V66H179.625ZM137.625 84V0H197.625V84H137.625ZM245.438 42V18H221.438V42H245.438ZM203.438 84V0H263.438V60H245.438V66H263.438V84H227.438V60H221.438V84H203.438ZM269.25 84V0H323.25V18H287.25V36H323.25V54H287.25V84H269.25ZM371.062 66V18H347.062V66H371.062ZM329.062 84V0H389.062V84H329.062Z" fill="black"/>
</svg>
